<svg width="73" height="73" viewBox="0 0 73 73" fill="none" xmlns="http://www.w3.org/2000/svg">
<g clip-path="url(#clip0)">
<path d="M25.9085 54.6163C25.4394 54.6466 25.0593 54.6529 24.5664 54.5942C24.0734 54.5354 23.6934 54.5418 23.2895 54.4591C22.3926 54.3177 21.5609 54.0633 20.7054 53.7199C19.0182 53.1222 17.5027 52.0966 16.1828 50.7324C14.8867 49.4572 13.8752 47.8195 13.3328 46.1514C13.0052 45.2848 12.8795 44.4596 12.73 43.5452C12.6997 43.0761 12.6933 42.6961 12.6631 42.227C12.6328 41.7579 12.7155 41.354 12.6852 40.8849L13.1083 42.1077C13.2276 42.5529 13.4121 42.8853 13.6204 43.3066C13.9242 44.0842 14.317 44.8379 14.686 45.5025C15.4478 46.9209 16.3638 48.2025 17.5232 49.3234C18.6825 50.4444 19.907 51.4524 21.3748 52.2998C22.0522 52.691 22.8187 53.0582 23.5852 53.4255C23.9239 53.621 24.3516 53.7927 24.7794 53.9644L25.9085 54.6163Z" fill="#42ADE2"/>
<path d="M26.5003 57.8936C26.2809 58.1432 25.9485 58.3277 25.6162 58.5122C25.2839 58.6967 25.0406 58.8573 24.6844 58.9527C24.085 59.2088 23.3965 59.4887 22.6602 59.5906C21.3007 59.8594 19.7805 59.885 18.4559 59.5719C17.0422 59.2826 15.7112 58.5894 14.6886 57.6227C14.1893 57.1838 13.6661 56.6559 13.2319 56.1042C13.0713 55.8609 12.8868 55.5286 12.7023 55.1963C12.6308 54.9291 12.4701 54.6858 12.3747 54.3297C12.7134 54.5252 12.9392 54.6556 13.1889 54.875C13.5276 55.0706 13.7773 55.29 14.0031 55.4204C14.5676 55.7463 15.0431 56.0961 15.5838 56.333C16.689 56.8958 17.7703 57.3696 18.982 57.6175C20.1047 57.8893 21.3816 58.0244 22.5456 58.0943C23.1276 58.1292 23.7748 58.0512 24.4458 58.0623C24.7368 58.0798 25.093 57.9843 25.384 58.0018C25.8531 57.9715 26.1202 57.8999 26.5003 57.8936Z" fill="#42ADE2"/>
<path d="M35.0289 9.22475C35.498 9.1945 35.9019 9.27715 36.3948 9.33594C36.8878 9.39474 37.2917 9.47739 37.6956 9.56004C38.6163 9.79054 39.448 10.0449 40.3035 10.3883C42.0146 11.0751 43.5539 12.1896 44.7848 13.5777C46.0157 14.9658 46.9381 16.6275 47.3915 18.3193C47.6301 19.2098 47.7558 20.0351 47.8163 20.9733C47.8465 21.4424 47.8529 21.8224 47.7941 22.3153C47.7353 22.8083 47.7417 23.1883 47.6591 23.5923L47.236 22.3695C47.1167 21.9242 47.0212 21.568 46.8129 21.1467L45.9015 18.814C45.2288 17.3718 44.2889 16.0012 43.1948 14.7673C42.1006 13.5334 40.8761 12.5254 39.4974 11.6541C38.7961 11.1739 38.0296 10.8067 37.3283 10.3265C36.9896 10.131 36.5618 9.95927 36.1341 9.78757L35.0289 9.22475Z" fill="#42ADE2"/>
<path d="M42.6805 6.79274C43.0605 6.78634 43.3515 6.80381 43.6664 6.91032C43.9574 6.92779 44.3613 7.01044 44.6761 7.11696C45.3058 7.32998 45.9356 7.54301 46.5891 7.84508C47.8072 8.47308 48.895 9.3269 49.6742 10.4542C50.5426 11.5577 51.0785 12.8457 51.2584 14.2291C51.3363 14.8763 51.3252 15.5474 51.3142 16.2184C51.2967 16.5094 51.2141 16.9133 51.1966 17.2043C51.0901 17.5192 51.0726 17.8102 50.8771 18.1489L50.3999 16.368C50.2328 15.7446 50.0006 15.2342 49.8575 14.6999C49.3692 13.59 48.9048 12.5692 48.1971 11.709C47.4655 10.7597 46.6927 10.0124 45.8069 9.19995C45.3314 8.85016 44.8321 8.41132 44.3566 8.06153C44.1069 7.84211 43.8811 7.71174 43.5424 7.51618C43.245 7.11867 42.9063 6.92311 42.6805 6.79274Z" fill="#42ADE2"/>
<path d="M13.1994 28.9127C11.6332 30.1913 11.5825 32.4954 12.8611 34.0616L30.3561 54.4744L35.802 49.8657L18.2832 29.3638C17.0045 27.7976 14.7417 27.545 13.1994 28.9127Z" fill="#FED0AC"/>
<path d="M47.6604 39.6257L53.4148 34.7435L33.4341 11.4654C32.0665 9.92307 29.7146 9.69429 28.0832 11.0858C26.5409 12.4535 26.3121 14.8053 27.7037 16.4367L47.6604 39.6257Z" fill="#FED0AC"/>
<path d="M28.1484 10.9729C27.9942 11.1097 27.84 11.2464 27.7096 11.4722C29.2822 10.5737 31.2779 10.8979 32.5087 12.286L52.4894 35.564L53.5038 34.7196L33.5232 11.4415C32.1317 9.81016 29.7798 9.58138 28.1484 10.9729Z" fill="#E0A372"/>
<path d="M35.7781 49.7767L41.7519 44.6447L21.361 20.904C19.9694 19.2726 17.4156 19.0025 15.7843 20.394C14.1529 21.7855 13.9718 24.3155 15.3634 25.9469L35.7781 49.7767Z" fill="#FED0AC"/>
<path d="M15.8081 20.4831C15.6539 20.6198 15.4997 20.7566 15.3693 20.9824C16.9419 20.0838 19.1156 20.3603 20.3704 21.8375L33.0308 36.6741L35.3 37.3068L21.3848 20.993C19.9694 19.2726 17.5285 19.0677 15.8081 20.4831Z" fill="#E0A372"/>
<path d="M40.1107 42.7939L46.0844 37.662L25.6935 13.9213C24.302 12.2899 21.7482 12.0198 20.1407 13.5003C18.5093 14.8919 18.3282 17.4218 19.7198 19.0532L40.1107 42.7939Z" fill="#FED0AC"/>
<path d="M20.1168 13.4113C19.9626 13.5481 19.8322 13.7739 19.678 13.9106C21.2506 13.0121 23.4243 13.2886 24.6791 14.7657L39.0046 31.5421L41.2738 32.1748L25.6935 13.9213C24.2781 12.2008 21.7482 12.0198 20.1168 13.4113Z" fill="#E0A372"/>
<path d="M13.1994 28.9127C13.0452 29.0494 12.8909 29.1862 12.7606 29.412C14.2441 28.5373 16.1507 28.8854 17.2926 30.2973L27.717 42.4881L29.9862 43.1208L18.307 29.4529C17.0045 27.7977 14.7417 27.545 13.1994 28.9127Z" fill="#E0A372"/>
<path d="M57.7191 14.1205C54.8138 12.8947 51.4446 15.9926 51.2034 22.9289C51.0607 27.7391 51.2406 29.1225 48.749 31.2217L46.2633 28.3565C46.2633 28.3565 24.243 47.332 25.7474 49.0286C25.7474 49.0286 31.3041 57.6562 37.6379 60.6356C47.0616 65.1731 63.0749 53.3426 59.3191 36.12C57.1159 26.1166 60.8502 15.4766 57.7191 14.1205Z" fill="#FED0AC"/>
<path d="M57.7191 14.1205C57.1784 13.8836 56.5964 13.8486 56.0383 13.9027C56.1512 13.9679 56.3293 13.9202 56.4422 13.9854C59.6624 15.3177 58.1665 20.7768 57.798 25.4566C57.458 29.1744 57.32 32.9335 58.4048 36.2696C63.0779 50.8604 50.0921 61.8796 40.4717 61.5942C50.1764 62.9069 64.5218 51.6188 59.6817 36.4046C58.5969 33.0686 58.6936 29.5114 59.0749 25.5917C59.3544 20.9357 60.8502 15.4766 57.7191 14.1205Z" fill="#E0A372"/>
<path d="M49.4549 30.6508C44.1011 32.7534 38.1214 42.8498 46.1348 49.9602C39.6113 42.3551 44.8931 34.6408 48.7076 31.4236C49.0574 30.9482 49.4549 30.6508 49.4549 30.6508Z" fill="#E0A372"/>
</g>
<defs>
<clipPath id="clip0">
<rect width="59" height="59" fill="white" transform="translate(0 15.2703) rotate(-15)"/>
</clipPath>
</defs>
</svg>
