<svg width="26" height="26" viewBox="0 0 26 26" fill="none" xmlns="http://www.w3.org/2000/svg">
<g clip-path="url(#clip0)">
<path d="M25.9488 4.95056C24.9757 5.37835 23.945 5.66086 22.8898 5.78906C24.0021 5.12143 24.8349 4.07334 25.2338 2.83887C24.1817 3.44906 23.0366 3.88247 21.8441 4.12181C21.0422 3.26499 19.9799 2.69679 18.8221 2.50534C17.6643 2.31389 16.4756 2.50991 15.4406 3.06299C14.4056 3.61606 13.582 4.49527 13.0977 5.5642C12.6133 6.63313 12.4953 7.83202 12.7619 8.97487C8.33138 8.76768 4.40376 6.63893 1.77695 3.42306C1.29877 4.23628 1.04868 5.16337 1.05301 6.10675C1.05236 6.98373 1.26827 7.8473 1.68159 8.62078C2.09491 9.39426 2.69283 10.0537 3.42226 10.5406C2.57695 10.515 1.75006 10.2874 1.01076 9.87675V9.94094C1.0105 11.1719 1.43587 12.3651 2.21476 13.3183C2.99366 14.2714 4.07818 14.926 5.28451 15.171C4.82755 15.2931 4.35674 15.3556 3.88376 15.3571C3.5417 15.3571 3.21507 15.3237 2.88926 15.2636C3.23256 16.3229 3.89758 17.2488 4.79173 17.9124C5.68589 18.576 6.7647 18.9444 7.87801 18.9662C5.99172 20.4434 3.66421 21.2448 1.26832 21.242C0.843956 21.2437 0.419876 21.2198 -0.00161743 21.1705C2.44246 22.7366 5.2848 23.5679 8.18757 23.5657C17.992 23.5657 23.3496 15.4448 23.3496 8.41181C23.3496 8.18756 23.3496 7.95925 23.3326 7.73012C24.3806 6.979 25.2838 6.04414 25.9984 4.97087L25.9488 4.95056Z" fill="white"/>
</g>
<defs>
<clipPath id="clip0">
<rect width="26" height="26" fill="white"/>
</clipPath>
</defs>
</svg>
