<svg width="26" height="26" viewBox="0 0 26 26" fill="none" xmlns="http://www.w3.org/2000/svg">
<g clip-path="url(#clip0)">
<path d="M6.71775 22.75H2.00119V7.56112H6.71775V22.75ZM4.35663 5.48925C2.84863 5.48925 1.625 4.23962 1.625 2.73163C1.625 2.00715 1.9128 1.31235 2.42507 0.800074C2.93735 0.287795 3.63215 0 4.35663 0C5.0811 0 5.7759 0.287795 6.28818 0.800074C6.80045 1.31235 7.08825 2.00715 7.08825 2.73163C7.08825 4.23962 5.86462 5.48925 4.35663 5.48925ZM24.3701 22.75H19.6641V15.3562C19.6641 13.5939 19.6284 11.3344 17.212 11.3344C14.7599 11.3344 14.3837 13.2486 14.3837 15.2295V22.75H9.672V7.56112H14.1952V9.633H14.261C14.8907 8.43944 16.4288 7.18006 18.7233 7.18006C23.4967 7.18006 24.3742 10.3236 24.3742 14.4064V22.75H24.3701Z" fill="white"/>
</g>
<defs>
<clipPath id="clip0">
<rect width="26" height="26" fill="white"/>
</clipPath>
</defs>
</svg>
