<svg width="33" height="26" viewBox="0 0 33 26" fill="none" xmlns="http://www.w3.org/2000/svg">
<g clip-path="url(#clip0)">
<path d="M28.9985 -0.0248215C28.1064 -0.0375875 26.0342 0.255381 22.5743 2.49551C20.6886 2.0396 18.6822 1.81463 16.6724 1.81463C14.461 1.81463 12.2263 2.08627 10.1423 2.63932C5.17486 -0.638941 2.98229 0.0328725 2.98229 0.0328725C1.55089 3.49563 2.43543 6.05936 2.70428 6.69607C1.02188 8.45258 -0.00518799 10.6956 -0.00518799 13.4446C-0.00518799 15.52 0.238987 17.3814 0.835542 18.9996C0.868627 19.1245 0.857903 19.0966 0.913645 19.2035C1.04507 19.5385 1.1912 19.8637 1.35544 20.1777C1.41172 20.2907 1.46295 20.3743 1.46295 20.3743C3.13992 23.3983 6.44578 25.3517 12.3277 25.9651L21.2237 25.9748C27.4965 25.3731 30.5066 23.4138 31.8936 20.3694L31.9818 20.1712C32.1132 19.8637 32.2278 19.5437 32.5412 18.4666C32.8545 17.3895 32.9947 15.5241 32.9947 13.4438C32.9947 10.4601 31.8363 8.07277 29.9552 6.25649C30.2839 5.23001 30.7231 2.95038 29.5168 0.0320405C29.5168 0.0320405 29.3476 -0.0198295 28.9985 -0.0248475L28.9985 -0.0248215ZM21.988 10.9242C23.4365 10.9212 24.6772 11.1618 25.6087 12.1072V12.108C26.7744 13.2921 27.4565 14.7217 27.4565 16.2623C27.4565 23.4554 22.6743 23.651 16.7757 23.651C10.8761 23.651 6.09491 22.6543 6.09491 16.2623C6.09491 14.7319 6.76707 13.3108 7.9183 12.1316C9.83867 10.1662 13.0884 11.207 16.7757 11.207C18.6685 11.2067 20.4461 10.9275 21.9881 10.9242L21.988 10.9242ZM11.0006 13.0424C9.77328 13.0424 8.77827 14.6477 8.77827 16.6287C8.77827 18.6101 9.77322 20.2159 11.0006 20.2159C12.228 20.2159 13.223 18.6101 13.223 16.6287C13.223 14.648 12.228 13.0438 11.0006 13.0424ZM22.9244 13.0424C21.6971 13.0424 20.7021 14.6477 20.7021 16.6287C20.7021 18.6101 21.697 20.2159 22.9244 20.2159C24.1518 20.2159 25.1468 18.6101 25.1468 16.6287C25.1468 14.648 24.1518 13.0438 22.9244 13.0424Z" fill="white"/>
</g>
<defs>
<clipPath id="clip0">
<rect width="33" height="26" fill="white"/>
</clipPath>
</defs>
</svg>
