<svg width="26" height="26" viewBox="0 0 26 26" fill="none" xmlns="http://www.w3.org/2000/svg">
<g clip-path="url(#clip0)">
<path d="M5.46325 16.4279C5.46175 17.1519 5.17378 17.8458 4.66224 18.3581C4.15071 18.8704 3.4572 19.1594 2.73325 19.162C2.0086 19.1607 1.31402 18.8722 0.801688 18.3597C0.28936 17.8473 0.001074 17.1526 0 16.4279C0.00236143 15.7041 0.291215 15.0107 0.803404 14.4993C1.31559 13.9879 2.00944 13.7 2.73325 13.6988H5.46325V16.4279ZM6.838 16.4279C6.84036 15.704 7.12933 15.0104 7.64169 14.499C8.15406 13.9875 8.84812 13.6998 9.57206 13.6988C10.2953 13.7007 10.9884 13.9888 11.4998 14.5002C12.0112 15.0116 12.2993 15.7047 12.3013 16.4279V23.2668C12.3 23.9906 12.0121 24.6844 11.5007 25.1966C10.9893 25.7088 10.2959 25.9976 9.57206 26C8.84761 25.9983 8.15331 25.7098 7.64097 25.1976C7.12863 24.6854 6.83993 23.9912 6.838 23.2668V16.4279ZM9.57206 5.46325C8.84811 5.46175 8.15417 5.17378 7.64188 4.66224C7.12958 4.15071 6.84058 3.4572 6.838 2.73325C6.83993 2.0088 7.12863 1.31459 7.64097 0.802396C8.15331 0.290207 8.84761 0.00171567 9.57206 0C10.2959 0.00236143 10.9893 0.291215 11.5007 0.803404C12.0121 1.31559 12.3 2.00944 12.3013 2.73325V5.46325H9.57206ZM9.57206 6.838C10.2962 6.83972 10.9901 7.12848 11.5017 7.64098C12.0133 8.15349 12.3008 8.84792 12.3013 9.57206C12.3002 10.2956 12.0123 10.9891 11.5007 11.5007C10.9891 12.0123 10.2956 12.3002 9.57206 12.3013H2.73325C2.00944 12.3 1.31559 12.0121 0.803404 11.5007C0.291215 10.9893 0.00236143 10.2959 0 9.57206C0.00171567 8.84761 0.290207 8.15331 0.802396 7.64097C1.31459 7.12863 2.0088 6.83993 2.73325 6.838H9.57206ZM20.5367 9.57206C20.5374 8.84785 20.8251 8.15341 21.3368 7.64093C21.8485 7.12845 22.5425 6.83972 23.2668 6.838C23.9912 6.83993 24.6854 7.12863 25.1976 7.64097C25.7098 8.15331 25.9983 8.84761 26 9.57206C25.9976 10.2959 25.7088 10.9893 25.1966 11.5007C24.6844 12.0121 23.9906 12.3 23.2668 12.3013H20.5367V9.57206ZM19.162 9.57206C19.1596 10.296 18.8707 10.9896 18.3583 11.501C17.8459 12.0125 17.1519 12.3002 16.4279 12.3013C15.7047 12.2993 15.0116 12.0112 14.5002 11.4998C13.9888 10.9884 13.7007 10.2953 13.6988 9.57206V2.73325C13.7 2.00944 13.9879 1.31559 14.4993 0.803404C15.0107 0.291215 15.7041 0.00236143 16.4279 0C17.1526 0.001074 17.8473 0.28936 18.3597 0.801688C18.8722 1.31402 19.1607 2.0086 19.162 2.73325V9.57206ZM16.4279 20.5367C17.9392 20.5367 19.1579 21.7596 19.162 23.2668C19.1607 23.9914 18.8722 24.686 18.3597 25.1983C17.8473 25.7106 17.1526 25.9989 16.4279 26C15.7041 25.9976 15.0107 25.7088 14.4993 25.1966C13.9879 24.6844 13.7 23.9906 13.6988 23.2668V20.5367H16.4279ZM16.4279 19.162C15.704 19.1596 15.0104 18.8707 14.499 18.3583C13.9875 17.8459 13.6998 17.1519 13.6988 16.4279C13.6998 15.7044 13.9877 15.0109 14.4993 14.4993C15.0109 13.9877 15.7044 13.6998 16.4279 13.6988H23.2668C23.9906 13.7 24.6844 13.9879 25.1966 14.4993C25.7088 15.0107 25.9976 15.7041 26 16.4279C25.9989 17.1526 25.7106 17.8473 25.1983 18.3597C24.686 18.8722 23.9914 19.1607 23.2668 19.162H16.4279Z" fill="white"/>
</g>
<defs>
<clipPath id="clip0">
<rect width="26" height="26" fill="white"/>
</clipPath>
</defs>
</svg>
